<?xml version="1.0" encoding="UTF-8" standalone="no"?>
<svg width="266px" height="32px" viewBox="0 0 266 32" version="1.1" xmlns="http://www.w3.org/2000/svg" xmlns:xlink="http://www.w3.org/1999/xlink">
    <!-- Generator: Sketch 3.7.2 (28276) - http://www.bohemiancoding.com/sketch -->
    <title>ms-logos-dark</title>
    <desc>Created with Sketch.</desc>
    <defs></defs>
    <g id="Page-1" stroke="none" stroke-width="1" fill="none" fill-rule="evenodd">
        <g id="ms-logos-dark">
            <g id="Group" transform="translate(117.000000, 0.000000)" fill="#0078D7">
                <path d="M0,3.31034483 L0,28.6896552 L17.7623918,32 L17.7623918,0 L0,3.31034483 Z M8.30379333,21.7744792 C7.08700816,21.7744792 6.09542214,21.2738961 5.32900551,20.2727149 C4.56258888,19.2715337 4.17938631,17.9670217 4.17938631,16.3591397 C4.17938631,14.6613761 4.56851469,13.2882055 5.34678312,12.2395868 C6.12505156,11.1909681 7.156143,10.6666667 8.44008839,10.6666667 C9.65292296,10.6666667 10.633645,11.1684981 11.3822839,12.172176 C12.1309228,13.1758539 12.5052367,14.499091 12.5052367,16.1419269 C12.5052367,17.8297037 12.1170959,19.1903908 11.3408028,20.2240293 C10.5645097,21.2576677 9.55218331,21.7744792 8.30379333,21.7744792 Z M8.38675554,12.7489134 C7.71515334,12.7489134 7.18183018,13.0672393 6.78677006,13.7039006 C6.39170994,14.340562 6.19418284,15.1831894 6.19418284,16.2318081 C6.19418284,17.295407 6.39170994,18.1367861 6.78677006,18.7559704 C7.18183018,19.3751548 7.69935117,19.6847424 8.33934856,19.6847424 C8.99909896,19.6847424 9.52254577,19.3838932 9.90970469,18.7821858 C10.2968636,18.1804784 10.4904402,17.345341 10.4904402,16.2767486 C10.4904402,15.1632155 10.3027894,14.2968697 9.9274823,13.6776853 C9.55217519,13.0585009 9.03860474,12.7489134 8.38675554,12.7489134 Z M31.2195122,6 L19.5121951,6 L19.5121951,10.0746097 L23.3603246,14 L31.2195122,6 Z M32,24.5392621 C32,24.5392621 31.5555524,25.6 30.9991799,25.6 L19.5121951,25.6 L19.5121951,12.900742 L22.7304773,16.3183298 L23.2602898,16.8809533 L23.7901026,16.3183298 L32,7.6 L32,24.5392621 Z" id="icon"></path>
            </g>
            <path d="M51.627,12.316 C51.231,12.316 50.805,12.361 50.347,12.46 C47.149,13.197 46.841,16.757 46.841,16.757 C46.841,16.757 43.212,16.88 43.212,20.195 C43.212,22.098 44.196,24.001 46.964,24.001 L61.479,24.001 C63.262,24 64,22.465 64,21.115 C64,18.353 61.478,18.107 61.478,18.107 C61.539,16.081 60.433,14.854 59.263,14.363 C58.664,14.102 58.088,14.011 57.576,14.011 C56.406,14.011 55.573,14.486 55.573,14.486 C54.904,13.509 53.673,12.316 51.627,12.316 L51.627,12.316 Z M51.795,8 C49.618,8 47.836,9.264 46.903,10.988 C46.903,10.988 45.998,10.424 44.706,10.424 C44.093,10.424 43.392,10.551 42.658,10.926 C41.059,11.786 40.075,13.688 40.26,15.53 C40.26,15.53 37,15.776 37,19.274 C37,21.177 38.723,22.896 40.629,22.896 L43.027,22.896 C42.412,21.976 42.289,21.054 42.289,20.318 C42.289,16.634 46.164,16.083 46.164,16.083 C46.164,16.083 46.656,12.584 50.1,11.725 C50.658,11.589 51.186,11.527 51.68,11.527 C53.638,11.527 55.07,12.488 55.758,13.566 C55.758,13.566 56.373,13.198 57.664,13.198 C57.54,12.031 56.68,9.515 53.974,8.41 C53.217,8.127 52.486,8 51.795,8 L51.795,8 Z" id="Shape" fill="#333339" opacity="0.3"></path>
            <path d="M175.024,13.911 L175.008,13.927 C174.566,14.244 173.08,15.509 171.657,17.027 C170.061,18.767 168.481,20.617 168.417,21.899 L168.417,21.931 L168.433,22.042 L168.433,22.074 L168.465,22.153 C170.108,23.893 172.448,25 175.008,25 C177.631,25 180.002,23.877 181.646,22.074 L181.646,22.042 L181.646,21.915 L181.63,21.773 C181.488,20.508 179.955,18.736 178.406,17.043 C177,15.526 175.767,14.545 175.024,13.911 L175.024,13.911 Z M169.224,9.246 L169.003,9.294 C167.17,10.939 166,13.343 166,16 C166,18.198 166.822,20.224 168.15,21.806 C167.612,21.094 168.023,19.481 168.83,17.804 C169.114,17.219 169.462,16.633 169.825,16.048 C171.184,13.833 172.876,11.951 172.876,11.951 C171.691,10.654 170.537,9.784 169.936,9.451 C169.778,9.372 169.619,9.309 169.477,9.277 L169.445,9.261 L169.224,9.246 L169.224,9.246 Z M180.808,9.246 L180.587,9.262 L180.555,9.262 L180.492,9.278 C179.781,9.516 178.469,10.559 177.189,11.904 C177.189,11.904 178.832,13.818 180.255,16.016 C180.618,16.586 180.918,17.187 181.219,17.772 C181.978,19.243 182.452,21.03 181.867,21.821 C183.195,20.255 184,18.215 184,16 C184,13.327 182.83,10.906 180.966,9.261 L180.808,9.246 L180.808,9.246 Z M169.915,8.589 L169.903,8.597 L169.915,8.589 L169.915,8.589 Z M175.009,6.999 C173.118,6.999 171.352,7.581 169.917,8.588 C170.026,8.513 170.164,8.452 170.331,8.406 C170.432,8.383 170.551,8.373 170.684,8.373 C171.194,8.373 171.901,8.532 172.528,8.771 C173.602,9.182 174.646,9.8 175.025,10.052 C175.421,9.799 176.416,9.213 177.49,8.787 C178.034,8.571 178.7,8.386 179.285,8.386 C179.43,8.386 179.571,8.398 179.702,8.422 C179.844,8.454 179.971,8.501 180.065,8.564 C178.627,7.585 176.889,6.999 175.009,6.999 L175.009,6.999 Z" id="Shape" fill="#333339" opacity="0.3"></path>
            <path d="M257.018,12.053 L258.5,16.08 L261.349,17.441 L251.001,22.982 L255.045,25.868 L266,19.494 L266,14.918 L257.018,12.053 L257.018,12.053 Z M251,7 L251,22.981 L255.01,18.924 L255.01,8.263 L251,7 L251,7 Z" id="Shape" fill="#333339" opacity="0.3"></path>
            <path d="M89.049,16.742 L82,16.742 L82,22.64 L89.049,23.681 L89.049,16.742 L89.049,16.742 Z M99,16.742 L89.74,16.742 L89.74,23.681 L99,24.999 L99,16.742 L99,16.742 Z M89.049,9.318 L82,10.359 L82,16.049 L89.049,16.049 L89.049,9.318 L89.049,9.318 Z M99,8 L89.74,9.318 L89.74,16.049 L99,16.049 L99,8 L99,8 Z" id="Shape" fill="#333339" opacity="0.3"></path>
            <path d="M217.039,19.676 C218.273,19.676 218.955,19.004 218.955,18.317 C218.955,17.903 218.752,17.445 217.939,17.245 L215.253,16.572 C213.09,16.028 212.697,14.856 212.697,13.754 C212.697,11.466 214.846,10.608 216.864,10.608 C218.722,10.608 220.914,11.637 220.914,13.01 C220.914,13.598 220.406,13.94 219.825,13.94 C218.722,13.94 218.925,12.41 216.704,12.41 C215.601,12.41 214.99,12.911 214.99,13.626 C214.99,14.341 215.861,14.569 216.617,14.742 L218.605,15.184 C220.782,15.67 221.335,16.944 221.335,18.145 C221.335,20.004 219.912,21.392 217.038,21.392 C214.018,21.392 212.668,19.904 212.668,18.789 C212.668,18.217 213.089,17.816 213.67,17.816 C214.963,17.816 214.628,19.676 217.039,19.676 M213.027,7 C210.251,7 208,9.25 208,12.027 C208,12.912 208.229,13.744 208.63,14.466 C208.539,14.963 208.495,15.478 208.495,16.002 C208.495,20.701 212.302,24.507 217,24.507 C217.524,24.507 218.036,24.46 218.534,24.369 C219.256,24.77 220.088,24.999 220.973,24.999 C223.75,24.999 226,22.748 226,19.972 C226,19.087 225.772,18.255 225.37,17.533 C225.461,17.036 225.506,16.525 225.506,16.001 C225.506,11.302 221.699,7.491 217,7.491 C216.476,7.491 215.963,7.538 215.466,7.629 C214.744,7.229 213.912,7 213.027,7" id="Shape" fill="#333339" opacity="0.3"></path>
            <polyline id="Shape" fill="#333339" opacity="0.3" points="10 7 0.026 10.625 0 10.625 0 21.437 2.968 19.826 2.968 11.032 10 9.835 10 22.771 0 21.437 10 25 14.995 23.517 14.995 23.499 14.995 8.545 10 7"></polyline>
        </g>
    </g>
</svg>